[center][img]http://www.flix66.com/wp-content/uploads/2011/05/Diary-of-a-Wimpy-Kid-2-Blu-ray.jpg[/img][color=red][size=medium]

[img]http://leetleech.org/images/48874973695367351744.png[/img]


Format                           : AVI

Format/Info                      : Audio Video Interleave

Format profile                   : OpenDML

File size                        : 2.69 GiB

Duration                         : 1h 35mn

Overall bit rate                 : 4 035 Kbps

Writing application              : VirtualDubMod 1.5.10.3 | www.virtualdub-fr.org || (build 2550/release)

Writing library                  : VirtualDubMod build 2550/release

Video

ID                               : 0
Format                           : MPEG-4 Visual
Format profile                   : Advanced Simple@L5
Format settings, BVOP            : 2
Format settings, QPel            : No
Format settings, GMC             : No warppoints
Format settings, Matrix          : Default (H.263)
Muxing mode                      : Packed bitstream
Codec ID                         : XVID
Codec ID/Hint                    : XviD
Duration                         : 1h 35mn
Bit rate                         : 3 577 Kbps
Width                            : 1 280 pixels
Height                           : 544 pixels
Display aspect ratio             : 2.35:1
Frame rate                       : 23.976 fps
Color space                      : YUV
Chroma subsampling               : 4:2:0
Bit depth                        : 8 bits
Scan type                        : Progressive
Compression mode                 : Lossy
Bits/(Pixel*Frame)               : 0.214
Stream size                      : 2.38 GiB (89%)
Writing library                  : XviD 1.2.1 (UTC 2008-12-04)

Audio

ID                               : 1
Format                           : AC-3
Format/Info                      : Audio Coding 3
Mode extension                   : CM (complete main)
Codec ID                         : 2000
Duration                         : 1h 35mn
Bit rate mode                    : Constant
Bit rate                         : 448 Kbps
Channel(s)                       : 6 channels
Channel positions                : Front: L C R, Side: L R, LFE
Sampling rate                    : 48.0 KHz
Bit depth                        : 16 bits
Compression mode                 : Lossy
Stream size                      : 306 MiB (11%)
Alignment                        : Split accross interleaves
Interleave, duration             : 42 ms (1.00 video frame)
Interleave, preload duration     : 500 ms
 
http://www.imdb.com/title/tt1650043/

[IMG]http://leetleech.org/images/89524873606771859129.png[/IMG]

Users: 5.3/10 (1,637 votes) 17 reviews | Critics: 66 reviews Metascore: 51/100 (based on 23 reviews from Metacritic.com)

Back in middle school after summer vacation, Greg Heffley and his older brother Rodrick must deal with their parents' misguided attempts to have them bond.

Director:David Bowers

Writers: Gabe Sachs (screenplay), Jeff Judah (screenplay), and 1 more credit »

Stars: Zachary Gordon, Devon Bostick and Robert Capron 

[img]http://leetleech.org/images/95521316153253938506.png[/img]

[img]http://img560.imageshack.us/img560/2404/vlcsnap2011053118h10m14.png[/img]

[img]http://img88.imageshack.us/img88/4954/vlcsnap2011053118h09m43.png[/img]

[img]http://img508.imageshack.us/img508/6426/vlcsnap2011053118h10m39.png[/img]

Source Used 

Diary of a Wimpy Kid Roderick Rules 2011 BluRay 1080p DTS x264-CHD .....Thanks 

Not expecting many to want this but alot of work goes into these 720ps alot of hrs thats why i dont do them so often 

Anyway this is only getting released here so if you want it ....Enjoy ! :ras:

Greetz to IMAGiNE,Flawl3ss,DiLLoN,BDK,NOiR,TOXiCiNK,THC,Ez,Rx,Boobyblue,TaRiQ786,LKRG,CrEwSaDe

[img]http://img411.imageshack.us/img411/6898/sig1n.jpg[/img]
